<?xml version="1.0" encoding="UTF-8" standalone="no"?>
<!DOCTYPE svg PUBLIC "-//W3C//DTD SVG 1.1//EN" "http://www.w3.org/Graphics/SVG/1.1/DTD/svg11.dtd">
<svg width="100%" height="100%" viewBox="0 0 24 24" version="1.1" xmlns="http://www.w3.org/2000/svg" xmlns:xlink="http://www.w3.org/1999/xlink" xml:space="preserve" xmlns:serif="http://www.serif.com/" style="fill-rule:evenodd;clip-rule:evenodd;stroke-linecap:round;stroke-linejoin:round;stroke-miterlimit:1.5;">
    <g transform="matrix(1.20412,0,0,1.20412,-2.49724,-2.4495)">
        <g transform="matrix(0.499275,0,0,0.499275,4.97407,6.07097)">
            <circle cx="14.072" cy="11.875" r="10.115" style="stroke-width:1px;"/>
        </g>
        <g transform="matrix(1,0,0,1.27479,0.0777502,1.20527)">
            <path d="M11.341,4.506C11.341,4.506 9.798,4.178 11.008,3.008C12.219,1.838 12,0.971 12,0.971C12,0.971 13.569,2.597 12.318,3.423C11.067,4.249 12.539,4.506 12.539,4.506L11.341,4.506Z" style="stroke-width:0.43px;"/>
        </g>
        <g transform="matrix(0.707107,0.707107,-0.90141,0.90141,11.3489,-3.96841)">
            <path d="M11.341,4.506C11.341,4.506 9.798,4.178 11.008,3.008C12.219,1.838 12,0.971 12,0.971C12,0.971 13.569,2.597 12.318,3.423C11.067,4.249 12.539,4.506 12.539,4.506L11.341,4.506Z" style="stroke-width:0.43px;"/>
        </g>
        <g transform="matrix(2.22045e-16,1,-1.27479,2.22045e-16,22.7947,0.343191)">
            <path d="M11.341,4.506C11.341,4.506 9.798,4.178 11.008,3.008C12.219,1.838 12,0.971 12,0.971C12,0.971 13.569,2.597 12.318,3.423C11.067,4.249 12.533,4.506 12.533,4.506L11.341,4.506Z" style="stroke-width:0.43px;"/>
        </g>
        <g transform="matrix(-0.707107,0.707107,-0.90141,-0.90141,27.6993,11.4853)">
            <path d="M11.248,4.44C11.248,4.44 9.798,4.178 11.008,3.008C12.219,1.838 12,0.971 12,0.971C12,0.971 13.569,2.597 12.318,3.423C11.067,4.249 12.539,4.506 12.539,4.506L11.248,4.44Z" style="stroke-width:0.43px;"/>
        </g>
        <g transform="matrix(-1,2.77556e-16,-4.44089e-16,-1.27479,23.6734,22.7947)">
            <path d="M11.341,4.506C11.341,4.506 9.798,4.178 11.008,3.008C12.219,1.838 12,0.971 12,0.971C12,0.971 13.569,2.596 12.318,3.423C11.114,4.219 12.828,4.446 12.539,4.506L11.341,4.506Z" style="stroke-width:0.43px;"/>
        </g>
        <g transform="matrix(-0.707107,-0.707107,0.90141,-0.90141,12.7304,27.7895)">
            <path d="M11.283,4.406C11.283,4.406 9.798,4.178 11.008,3.008C12.219,1.838 12,0.971 12,0.971C12,0.971 13.569,2.597 12.318,3.423C11.067,4.249 12.517,4.433 12.517,4.433L11.283,4.406Z" style="stroke-width:0.43px;"/>
        </g>
        <g transform="matrix(-4.44089e-16,-1,1.27479,-6.66134e-16,1.28457,23.6734)">
            <path d="M11.355,4.444C11.355,4.444 9.798,4.178 11.008,3.008C12.219,1.838 12,0.971 12,0.971C12,0.971 13.569,2.597 12.318,3.423C11.067,4.249 12.53,4.444 12.53,4.444L11.355,4.444Z" style="stroke-width:0.43px;"/>
        </g>
        <g transform="matrix(0.707107,-0.707107,0.90141,0.90141,-3.91183,12.6753)">
            <path d="M12.539,4.506C12.539,4.506 11.231,4.483 11.093,4.427C10.714,4.272 10.12,3.866 11.008,3.008C12.219,1.838 12,0.971 12,0.971C12,0.971 13.569,2.597 12.318,3.423C11.067,4.249 12.539,4.506 12.539,4.506Z" style="stroke-width:0.43px;"/>
        </g>
    </g>
</svg>
